<svg xmlns="http://www.w3.org/2000/svg" xmlns:xlink="http://www.w3.org/1999/xlink" width="500" zoomAndPan="magnify" viewBox="0 0 375 73.499998" height="98" preserveAspectRatio="xMidYMid meet" version="1.0"><defs><g/><clipPath id="77031b2c13"><path d="M 1.265625 12 L 61 12 L 61 73.003906 L 1.265625 73.003906 Z M 1.265625 12 " clip-rule="nonzero"/></clipPath><clipPath id="8a2c2fc149"><path d="M 0.265625 53 L 59.625 53 L 59.625 61 L 0.265625 61 Z M 0.265625 53 " clip-rule="nonzero"/></clipPath><clipPath id="e6d05d396c"><path d="M 0.265625 0.871094 L 7 0.871094 L 7 61.003906 L 0.265625 61.003906 Z M 0.265625 0.871094 " clip-rule="nonzero"/></clipPath><clipPath id="c4116c5a89"><rect x="0" width="60" y="0" height="62"/></clipPath><clipPath id="cc81de689f"><path d="M 314 0 L 373.730469 0 L 373.730469 60 L 314 60 Z M 314 0 " clip-rule="nonzero"/></clipPath><clipPath id="a27b734f2a"><path d="M 0.496094 0 L 59.730469 0 L 59.730469 7 L 0.496094 7 Z M 0.496094 0 " clip-rule="nonzero"/></clipPath><clipPath id="edd9ebc332"><path d="M 53 0 L 59.730469 0 L 59.730469 59.59375 L 53 59.59375 Z M 53 0 " clip-rule="nonzero"/></clipPath><clipPath id="98568a86f2"><rect x="0" width="60" y="0" height="60"/></clipPath><clipPath id="48a83d5ff2"><rect x="0" width="326" y="0" height="54"/></clipPath></defs><g clip-path="url(#77031b2c13)"><g transform="matrix(1, 0, 0, 1, 1, 12)"><g clip-path="url(#c4116c5a89)"><g clip-path="url(#8a2c2fc149)"><path stroke-linecap="butt" transform="matrix(0.65795, 0, 0, 0.65795, 0.266898, 53.883667)" fill="none" stroke-linejoin="miter" d="M -0.00193514 4.997657 L 84.43411 4.997657 " stroke="#ff9764" stroke-width="10" stroke-opacity="1" stroke-miterlimit="4"/></g><g clip-path="url(#e6d05d396c)"><path stroke-linecap="butt" transform="matrix(0, 0.65795, -0.65795, 0, 6.843024, 4.235918)" fill="none" stroke-linejoin="miter" d="M -0.00234446 4.997852 L 82.462616 4.997852 " stroke="#ff9764" stroke-width="10" stroke-opacity="1" stroke-miterlimit="4"/></g></g></g></g><g clip-path="url(#cc81de689f)"><g transform="matrix(1, 0, 0, 1, 314, 0)"><g clip-path="url(#98568a86f2)"><g clip-path="url(#a27b734f2a)"><path stroke-linecap="butt" transform="matrix(-0.65795, 0, 0, -0.65795, 59.724357, 6.567994)" fill="none" stroke-linejoin="miter" d="M 0.00258468 5.001369 L 84.432693 5.001369 " stroke="#ff9764" stroke-width="10" stroke-opacity="1" stroke-miterlimit="4"/></g><g clip-path="url(#edd9ebc332)"><path stroke-linecap="butt" transform="matrix(0, -0.65795, 0.65795, 0, 53.148232, 56.215744)" fill="none" stroke-linejoin="miter" d="M 0.0013678 4.999268 L 82.466328 4.999268 " stroke="#ff9764" stroke-width="10" stroke-opacity="1" stroke-miterlimit="4"/></g></g></g></g><g transform="matrix(1, 0, 0, 1, 24, 8)"><g clip-path="url(#48a83d5ff2)"><g fill="#ff9764" fill-opacity="1"><g transform="translate(1.149306, 42.925341)"><g><path d="M 9.765625 0.421875 C 7.390625 0.421875 5.507812 -0.175781 4.125 -1.375 C 2.75 -2.570312 2.0625 -4.210938 2.0625 -6.296875 C 2.0625 -8.347656 2.832031 -9.972656 4.375 -11.171875 C 5.625 -12.171875 7.4375 -12.914062 9.8125 -13.40625 L 18.25 -15.03125 C 18.25 -16.882812 17.757812 -18.296875 16.78125 -19.265625 C 15.695312 -20.359375 14.242188 -20.90625 12.421875 -20.90625 C 10.960938 -20.90625 9.695312 -20.519531 8.625 -19.75 C 7.5625 -18.976562 6.882812 -17.921875 6.59375 -16.578125 L 2.953125 -16.578125 C 3.242188 -18.234375 3.851562 -19.617188 4.78125 -20.734375 C 5.707031 -21.847656 6.835938 -22.6875 8.171875 -23.25 C 9.515625 -23.820312 10.945312 -24.109375 12.46875 -24.109375 C 13.832031 -24.109375 15.117188 -23.90625 16.328125 -23.5 C 17.546875 -23.101562 18.570312 -22.492188 19.40625 -21.671875 C 20.226562 -20.867188 20.8125 -19.96875 21.15625 -18.96875 C 21.5 -17.96875 21.707031 -17.019531 21.78125 -16.125 C 21.851562 -15.226562 21.890625 -14.507812 21.890625 -13.96875 L 21.890625 0 L 18.25 0 L 18.25 -3.71875 C 17.414062 -2.519531 16.457031 -1.59375 15.375 -0.9375 C 14.570312 -0.457031 13.707031 -0.113281 12.78125 0.09375 C 11.851562 0.3125 10.847656 0.421875 9.765625 0.421875 Z M 10.1875 -2.78125 C 11.644531 -2.78125 12.90625 -3.050781 13.96875 -3.59375 C 15.644531 -4.476562 16.78125 -5.617188 17.375 -7.015625 C 17.976562 -8.421875 18.28125 -10.109375 18.28125 -12.078125 L 10.578125 -10.53125 C 8.804688 -10.1875 7.507812 -9.628906 6.6875 -8.859375 C 6.03125 -8.203125 5.703125 -7.375 5.703125 -6.375 C 5.703125 -5.289062 6.109375 -4.421875 6.921875 -3.765625 C 7.734375 -3.109375 8.820312 -2.78125 10.1875 -2.78125 Z M 10.1875 -2.78125 "/></g></g></g><g fill="#ff9764" fill-opacity="1"><g transform="translate(24.959378, 42.925341)"><g><path d="M 4.875 -27.75 C 4.101562 -27.75 3.445312 -28.015625 2.90625 -28.546875 C 2.363281 -29.078125 2.09375 -29.710938 2.09375 -30.453125 C 2.09375 -31.191406 2.363281 -31.816406 2.90625 -32.328125 C 3.445312 -32.847656 4.101562 -33.109375 4.875 -33.109375 C 5.644531 -33.109375 6.300781 -32.847656 6.84375 -32.328125 C 7.394531 -31.816406 7.671875 -31.191406 7.671875 -30.453125 C 7.671875 -29.710938 7.394531 -29.078125 6.84375 -28.546875 C 6.300781 -28.015625 5.644531 -27.75 4.875 -27.75 Z M 6.6875 0 L 3.046875 0 L 3.046875 -23.6875 L 6.6875 -23.6875 Z M 6.6875 0 "/></g></g></g><g fill="#ff9764" fill-opacity="1"><g transform="translate(33.834034, 42.925341)"><g><path d="M 12.296875 0.46875 C 10.210938 0.46875 8.367188 -0.0546875 6.765625 -1.109375 C 5.171875 -2.171875 3.929688 -3.640625 3.046875 -5.515625 C 2.160156 -7.398438 1.71875 -9.570312 1.71875 -12.03125 C 1.71875 -14.488281 2.160156 -16.660156 3.046875 -18.546875 C 3.929688 -20.429688 5.171875 -21.898438 6.765625 -22.953125 C 8.367188 -24.015625 10.210938 -24.546875 12.296875 -24.546875 C 13.722656 -24.546875 14.96875 -24.296875 16.03125 -23.796875 C 17.101562 -23.296875 18.125 -22.359375 19.09375 -20.984375 L 19.09375 -32.671875 L 24.890625 -32.671875 L 24.890625 0 L 19.09375 0 L 19.09375 -3.046875 C 18.125 -1.703125 17.101562 -0.78125 16.03125 -0.28125 C 14.96875 0.21875 13.722656 0.46875 12.296875 0.46875 Z M 13.625 -4.5 C 15.476562 -4.5 16.972656 -5.195312 18.109375 -6.59375 C 19.253906 -7.988281 19.828125 -9.800781 19.828125 -12.03125 C 19.828125 -14.257812 19.253906 -16.070312 18.109375 -17.46875 C 16.972656 -18.875 15.476562 -19.578125 13.625 -19.578125 C 11.789062 -19.578125 10.316406 -18.867188 9.203125 -17.453125 C 8.085938 -16.035156 7.53125 -14.226562 7.53125 -12.03125 C 7.53125 -9.863281 8.085938 -8.066406 9.203125 -6.640625 C 10.316406 -5.210938 11.789062 -4.5 13.625 -4.5 Z M 13.625 -4.5 "/></g></g></g><g fill="#ff9764" fill-opacity="1"><g transform="translate(60.513327, 42.925341)"><g><path d="M 13.875 0.46875 C 11.414062 0.46875 9.265625 -0.0625 7.421875 -1.125 C 5.585938 -2.195312 4.160156 -3.660156 3.140625 -5.515625 C 2.128906 -7.378906 1.625 -9.492188 1.625 -11.859375 C 1.625 -13.429688 1.863281 -14.972656 2.34375 -16.484375 C 2.832031 -18.003906 3.578125 -19.367188 4.578125 -20.578125 C 5.578125 -21.796875 6.832031 -22.757812 8.34375 -23.46875 C 9.863281 -24.1875 11.648438 -24.546875 13.703125 -24.546875 C 15.242188 -24.546875 16.734375 -24.300781 18.171875 -23.8125 C 19.617188 -23.320312 20.910156 -22.570312 22.046875 -21.5625 C 23.191406 -20.550781 24.097656 -19.257812 24.765625 -17.6875 C 25.441406 -16.113281 25.78125 -14.242188 25.78125 -12.078125 L 25.78125 -10.828125 L 7.625 -10.828125 C 7.675781 -10.316406 7.785156 -9.8125 7.953125 -9.3125 C 8.128906 -8.8125 8.316406 -8.378906 8.515625 -8.015625 C 9.085938 -6.898438 9.851562 -6.035156 10.8125 -5.421875 C 11.769531 -4.804688 12.863281 -4.5 14.09375 -4.5 C 15.457031 -4.5 16.601562 -4.851562 17.53125 -5.5625 C 18.46875 -6.28125 19.117188 -7.125 19.484375 -8.09375 L 25.390625 -8.09375 C 24.941406 -6.550781 24.21875 -5.128906 23.21875 -3.828125 C 22.21875 -2.535156 20.945312 -1.492188 19.40625 -0.703125 C 17.863281 0.078125 16.019531 0.46875 13.875 0.46875 Z M 7.875 -15.15625 L 19.875 -15.15625 C 19.84375 -15.46875 19.757812 -15.820312 19.625 -16.21875 C 19.5 -16.625 19.28125 -17.015625 18.96875 -17.390625 C 18.425781 -18.242188 17.707031 -18.882812 16.8125 -19.3125 C 15.914062 -19.738281 14.9375 -19.953125 13.875 -19.953125 C 12.820312 -19.953125 11.859375 -19.738281 10.984375 -19.3125 C 10.109375 -18.882812 9.390625 -18.242188 8.828125 -17.390625 C 8.503906 -17.015625 8.28125 -16.625 8.15625 -16.21875 C 8.03125 -15.820312 7.9375 -15.46875 7.875 -15.15625 Z M 7.875 -15.15625 "/></g></g></g><g fill="#ff9764" fill-opacity="1"><g transform="translate(87.064143, 42.925341)"><g><path d="M 13.015625 0.46875 C 11.191406 0.46875 9.453125 0.175781 7.796875 -0.40625 C 6.140625 -0.988281 4.742188 -1.914062 3.609375 -3.1875 C 2.484375 -4.457031 1.78125 -6.09375 1.5 -8.09375 L 7.1875 -8.09375 C 7.5625 -6.78125 8.25 -5.78125 9.25 -5.09375 C 10.25 -4.40625 11.492188 -4.0625 12.984375 -4.0625 C 14.203125 -4.0625 15.210938 -4.304688 16.015625 -4.796875 C 16.816406 -5.285156 17.21875 -5.972656 17.21875 -6.859375 C 17.21875 -7.566406 16.953125 -8.128906 16.421875 -8.546875 C 15.890625 -8.960938 15.195312 -9.28125 14.34375 -9.5 C 13.488281 -9.726562 12.546875 -9.945312 11.515625 -10.15625 C 10.492188 -10.351562 9.445312 -10.59375 8.375 -10.875 C 7.300781 -11.164062 6.320312 -11.5625 5.4375 -12.0625 C 4.550781 -12.5625 3.835938 -13.226562 3.296875 -14.0625 C 2.753906 -14.90625 2.484375 -16 2.484375 -17.34375 C 2.484375 -19.03125 2.910156 -20.398438 3.765625 -21.453125 C 4.617188 -22.515625 5.753906 -23.296875 7.171875 -23.796875 C 8.585938 -24.296875 10.125 -24.546875 11.78125 -24.546875 C 14.570312 -24.546875 16.910156 -23.835938 18.796875 -22.421875 C 20.679688 -21.003906 21.835938 -18.984375 22.265625 -16.359375 L 16.828125 -16.359375 C 16.484375 -17.671875 15.835938 -18.601562 14.890625 -19.15625 C 13.953125 -19.71875 12.898438 -20 11.734375 -20 C 10.585938 -20 9.679688 -19.773438 9.015625 -19.328125 C 8.347656 -18.890625 8.015625 -18.300781 8.015625 -17.5625 C 8.015625 -16.90625 8.269531 -16.390625 8.78125 -16.015625 C 9.289062 -15.648438 9.96875 -15.363281 10.8125 -15.15625 C 11.65625 -14.957031 12.5625 -14.757812 13.53125 -14.5625 C 14.59375 -14.363281 15.671875 -14.128906 16.765625 -13.859375 C 17.867188 -13.585938 18.882812 -13.203125 19.8125 -12.703125 C 20.738281 -12.203125 21.484375 -11.515625 22.046875 -10.640625 C 22.617188 -9.773438 22.90625 -8.65625 22.90625 -7.28125 C 22.90625 -4.9375 22.035156 -3.054688 20.296875 -1.640625 C 18.554688 -0.234375 16.128906 0.46875 13.015625 0.46875 Z M 13.015625 0.46875 "/></g></g></g><g fill="#ff9764" fill-opacity="1"><g transform="translate(110.874215, 42.925341)"><g><path d="M 5.53125 -26.6875 C 4.550781 -26.6875 3.710938 -26.984375 3.015625 -27.578125 C 2.316406 -28.179688 1.96875 -28.984375 1.96875 -29.984375 C 1.96875 -30.953125 2.316406 -31.742188 3.015625 -32.359375 C 3.710938 -32.972656 4.550781 -33.28125 5.53125 -33.28125 C 6.5 -33.28125 7.332031 -32.972656 8.03125 -32.359375 C 8.726562 -31.742188 9.078125 -30.953125 9.078125 -29.984375 C 9.078125 -28.984375 8.726562 -28.179688 8.03125 -27.578125 C 7.332031 -26.984375 6.5 -26.6875 5.53125 -26.6875 Z M 8.390625 0 L 2.609375 0 L 2.609375 -24.03125 L 8.390625 -24.03125 Z M 8.390625 0 "/></g></g></g><g fill="#ff9764" fill-opacity="1"><g transform="translate(121.066208, 42.925341)"><g><path d="M 13.65625 9.125 C 12.03125 9.125 10.425781 8.898438 8.84375 8.453125 C 7.257812 8.015625 5.894531 7.222656 4.75 6.078125 C 3.613281 4.941406 2.875 3.34375 2.53125 1.28125 L 8.34375 1.28125 C 8.71875 2.457031 9.335938 3.304688 10.203125 3.828125 C 11.078125 4.359375 12.21875 4.625 13.625 4.625 C 15.59375 4.625 17.007812 4.171875 17.875 3.265625 C 18.75 2.367188 19.1875 1.222656 19.1875 -0.171875 L 19.1875 -3.5625 C 18.21875 -2.1875 17.1875 -1.253906 16.09375 -0.765625 C 15.007812 -0.285156 13.753906 -0.046875 12.328125 -0.046875 C 10.242188 -0.046875 8.410156 -0.570312 6.828125 -1.625 C 5.242188 -2.6875 4.007812 -4.128906 3.125 -5.953125 C 2.238281 -7.773438 1.796875 -9.859375 1.796875 -12.203125 C 1.796875 -14.597656 2.238281 -16.722656 3.125 -18.578125 C 4.007812 -20.441406 5.242188 -21.898438 6.828125 -22.953125 C 8.410156 -24.015625 10.242188 -24.546875 12.328125 -24.546875 C 13.753906 -24.546875 15.007812 -24.285156 16.09375 -23.765625 C 17.1875 -23.253906 18.21875 -22.328125 19.1875 -20.984375 L 19.1875 -24.03125 L 24.96875 -24.03125 L 24.96875 -1.546875 C 24.96875 1.191406 24.46875 3.335938 23.46875 4.890625 C 22.46875 6.453125 21.109375 7.546875 19.390625 8.171875 C 17.679688 8.804688 15.769531 9.125 13.65625 9.125 Z M 13.703125 -5.015625 C 14.929688 -5.015625 16.007812 -5.328125 16.9375 -5.953125 C 17.863281 -6.578125 18.59375 -7.4375 19.125 -8.53125 C 19.65625 -9.632812 19.921875 -10.890625 19.921875 -12.296875 C 19.921875 -13.691406 19.65625 -14.9375 19.125 -16.03125 C 18.59375 -17.132812 17.863281 -18 16.9375 -18.625 C 16.007812 -19.257812 14.929688 -19.578125 13.703125 -19.578125 C 12.472656 -19.578125 11.398438 -19.253906 10.484375 -18.609375 C 9.578125 -17.960938 8.875 -17.085938 8.375 -15.984375 C 7.875 -14.890625 7.625 -13.660156 7.625 -12.296875 C 7.625 -10.921875 7.875 -9.679688 8.375 -8.578125 C 8.875 -7.484375 9.578125 -6.613281 10.484375 -5.96875 C 11.398438 -5.332031 12.472656 -5.015625 13.703125 -5.015625 Z M 13.703125 -5.015625 "/></g></g></g><g fill="#ff9764" fill-opacity="1"><g transform="translate(147.788322, 42.925341)"><g><path d="M 8.390625 0 L 2.609375 0 L 2.609375 -24.03125 L 8.390625 -24.03125 L 8.390625 -20.984375 C 9.359375 -22.328125 10.367188 -23.253906 11.421875 -23.765625 C 12.484375 -24.285156 13.660156 -24.546875 14.953125 -24.546875 C 17.148438 -24.546875 18.8125 -24.148438 19.9375 -23.359375 C 21.0625 -22.578125 21.894531 -21.628906 22.4375 -20.515625 C 22.925781 -19.460938 23.210938 -18.382812 23.296875 -17.28125 C 23.378906 -16.175781 23.421875 -15.023438 23.421875 -13.828125 L 23.421875 0 L 17.6875 0 L 17.6875 -13.921875 C 17.6875 -15.148438 17.585938 -16.140625 17.390625 -16.890625 C 17.191406 -17.648438 16.890625 -18.257812 16.484375 -18.71875 C 15.804688 -19.425781 14.796875 -19.78125 13.453125 -19.78125 C 11.816406 -19.78125 10.601562 -19.296875 9.8125 -18.328125 C 9.320312 -17.753906 8.960938 -16.992188 8.734375 -16.046875 C 8.503906 -15.109375 8.390625 -13.84375 8.390625 -12.25 Z M 8.390625 0 "/></g></g></g><g fill="#ff9764" fill-opacity="1"><g transform="translate(172.840289, 42.925341)"><g><path d="M 13.015625 0.46875 C 11.191406 0.46875 9.453125 0.175781 7.796875 -0.40625 C 6.140625 -0.988281 4.742188 -1.914062 3.609375 -3.1875 C 2.484375 -4.457031 1.78125 -6.09375 1.5 -8.09375 L 7.1875 -8.09375 C 7.5625 -6.78125 8.25 -5.78125 9.25 -5.09375 C 10.25 -4.40625 11.492188 -4.0625 12.984375 -4.0625 C 14.203125 -4.0625 15.210938 -4.304688 16.015625 -4.796875 C 16.816406 -5.285156 17.21875 -5.972656 17.21875 -6.859375 C 17.21875 -7.566406 16.953125 -8.128906 16.421875 -8.546875 C 15.890625 -8.960938 15.195312 -9.28125 14.34375 -9.5 C 13.488281 -9.726562 12.546875 -9.945312 11.515625 -10.15625 C 10.492188 -10.351562 9.445312 -10.59375 8.375 -10.875 C 7.300781 -11.164062 6.320312 -11.5625 5.4375 -12.0625 C 4.550781 -12.5625 3.835938 -13.226562 3.296875 -14.0625 C 2.753906 -14.90625 2.484375 -16 2.484375 -17.34375 C 2.484375 -19.03125 2.910156 -20.398438 3.765625 -21.453125 C 4.617188 -22.515625 5.753906 -23.296875 7.171875 -23.796875 C 8.585938 -24.296875 10.125 -24.546875 11.78125 -24.546875 C 14.570312 -24.546875 16.910156 -23.835938 18.796875 -22.421875 C 20.679688 -21.003906 21.835938 -18.984375 22.265625 -16.359375 L 16.828125 -16.359375 C 16.484375 -17.671875 15.835938 -18.601562 14.890625 -19.15625 C 13.953125 -19.71875 12.898438 -20 11.734375 -20 C 10.585938 -20 9.679688 -19.773438 9.015625 -19.328125 C 8.347656 -18.890625 8.015625 -18.300781 8.015625 -17.5625 C 8.015625 -16.90625 8.269531 -16.390625 8.78125 -16.015625 C 9.289062 -15.648438 9.96875 -15.363281 10.8125 -15.15625 C 11.65625 -14.957031 12.5625 -14.757812 13.53125 -14.5625 C 14.59375 -14.363281 15.671875 -14.128906 16.765625 -13.859375 C 17.867188 -13.585938 18.882812 -13.203125 19.8125 -12.703125 C 20.738281 -12.203125 21.484375 -11.515625 22.046875 -10.640625 C 22.617188 -9.773438 22.90625 -8.65625 22.90625 -7.28125 C 22.90625 -4.9375 22.035156 -3.054688 20.296875 -1.640625 C 18.554688 -0.234375 16.128906 0.46875 13.015625 0.46875 Z M 13.015625 0.46875 "/></g></g></g><g fill="#ff9764" fill-opacity="1"><g transform="translate(196.650361, 42.925341)"><g><path d="M 14.90625 0 L 10.15625 0 C 8.382812 0 7.003906 -0.410156 6.015625 -1.234375 C 5.035156 -2.066406 4.546875 -3.410156 4.546875 -5.265625 L 4.546875 -19.40625 L 0.984375 -19.40625 L 0.984375 -24.03125 L 4.546875 -24.03125 L 4.546875 -32.671875 L 10.328125 -32.671875 L 10.328125 -24.03125 L 14.953125 -24.03125 L 14.953125 -19.40625 L 10.328125 -19.40625 L 10.328125 -7.03125 C 10.328125 -6.394531 10.429688 -5.863281 10.640625 -5.4375 C 10.859375 -5.007812 11.410156 -4.796875 12.296875 -4.796875 L 14.90625 -4.796875 Z M 14.90625 0 "/></g></g></g><g fill="#ff9764" fill-opacity="1"><g transform="translate(212.19538, 42.925341)"><g><path d="M 11 0.46875 C 7.289062 0.46875 4.796875 -0.859375 3.515625 -3.515625 C 3.140625 -4.316406 2.875 -5.191406 2.71875 -6.140625 C 2.5625 -7.097656 2.484375 -8.445312 2.484375 -10.1875 L 2.484375 -24.03125 L 8.265625 -24.03125 L 8.265625 -10.15625 C 8.265625 -8.925781 8.359375 -7.929688 8.546875 -7.171875 C 8.734375 -6.410156 9.023438 -5.804688 9.421875 -5.359375 C 10.109375 -4.640625 11.125 -4.28125 12.46875 -4.28125 C 14.125 -4.28125 15.347656 -4.765625 16.140625 -5.734375 C 16.628906 -6.304688 16.976562 -7.070312 17.1875 -8.03125 C 17.40625 -8.988281 17.515625 -10.253906 17.515625 -11.828125 L 17.515625 -24.03125 L 23.296875 -24.03125 L 23.296875 0 L 17.515625 0 L 17.515625 -3.046875 C 16.628906 -1.816406 15.675781 -0.921875 14.65625 -0.359375 C 13.644531 0.191406 12.425781 0.46875 11 0.46875 Z M 11 0.46875 "/></g></g></g><g fill="#ff9764" fill-opacity="1"><g transform="translate(237.290183, 42.925341)"><g><path d="M 12.296875 0.46875 C 10.210938 0.46875 8.367188 -0.0546875 6.765625 -1.109375 C 5.171875 -2.171875 3.929688 -3.640625 3.046875 -5.515625 C 2.160156 -7.398438 1.71875 -9.570312 1.71875 -12.03125 C 1.71875 -14.488281 2.160156 -16.660156 3.046875 -18.546875 C 3.929688 -20.429688 5.171875 -21.898438 6.765625 -22.953125 C 8.367188 -24.015625 10.210938 -24.546875 12.296875 -24.546875 C 13.722656 -24.546875 14.96875 -24.296875 16.03125 -23.796875 C 17.101562 -23.296875 18.125 -22.359375 19.09375 -20.984375 L 19.09375 -32.671875 L 24.890625 -32.671875 L 24.890625 0 L 19.09375 0 L 19.09375 -3.046875 C 18.125 -1.703125 17.101562 -0.78125 16.03125 -0.28125 C 14.96875 0.21875 13.722656 0.46875 12.296875 0.46875 Z M 13.625 -4.5 C 15.476562 -4.5 16.972656 -5.195312 18.109375 -6.59375 C 19.253906 -7.988281 19.828125 -9.800781 19.828125 -12.03125 C 19.828125 -14.257812 19.253906 -16.070312 18.109375 -17.46875 C 16.972656 -18.875 15.476562 -19.578125 13.625 -19.578125 C 11.789062 -19.578125 10.316406 -18.867188 9.203125 -17.453125 C 8.085938 -16.035156 7.53125 -14.226562 7.53125 -12.03125 C 7.53125 -9.863281 8.085938 -8.066406 9.203125 -6.640625 C 10.316406 -5.210938 11.789062 -4.5 13.625 -4.5 Z M 13.625 -4.5 "/></g></g></g><g fill="#ff9764" fill-opacity="1"><g transform="translate(263.969477, 42.925341)"><g><path d="M 5.53125 -26.6875 C 4.550781 -26.6875 3.710938 -26.984375 3.015625 -27.578125 C 2.316406 -28.179688 1.96875 -28.984375 1.96875 -29.984375 C 1.96875 -30.953125 2.316406 -31.742188 3.015625 -32.359375 C 3.710938 -32.972656 4.550781 -33.28125 5.53125 -33.28125 C 6.5 -33.28125 7.332031 -32.972656 8.03125 -32.359375 C 8.726562 -31.742188 9.078125 -30.953125 9.078125 -29.984375 C 9.078125 -28.984375 8.726562 -28.179688 8.03125 -27.578125 C 7.332031 -26.984375 6.5 -26.6875 5.53125 -26.6875 Z M 8.390625 0 L 2.609375 0 L 2.609375 -24.03125 L 8.390625 -24.03125 Z M 8.390625 0 "/></g></g></g><g fill="#ff9764" fill-opacity="1"><g transform="translate(274.16147, 42.925341)"><g><path d="M 13.921875 0.46875 C 11.523438 0.46875 9.394531 -0.0546875 7.53125 -1.109375 C 5.675781 -2.171875 4.226562 -3.648438 3.1875 -5.546875 C 2.144531 -7.441406 1.625 -9.644531 1.625 -12.15625 C 1.625 -14.582031 2.144531 -16.722656 3.1875 -18.578125 C 4.226562 -20.441406 5.671875 -21.898438 7.515625 -22.953125 C 9.359375 -24.015625 11.492188 -24.546875 13.921875 -24.546875 C 16.347656 -24.546875 18.488281 -24.015625 20.34375 -22.953125 C 22.195312 -21.898438 23.644531 -20.441406 24.6875 -18.578125 C 25.726562 -16.722656 26.25 -14.582031 26.25 -12.15625 C 26.25 -9.675781 25.734375 -7.484375 24.703125 -5.578125 C 23.679688 -3.679688 22.242188 -2.195312 20.390625 -1.125 C 18.535156 -0.0625 16.378906 0.46875 13.921875 0.46875 Z M 13.921875 -4.5 C 15.804688 -4.5 17.332031 -5.210938 18.5 -6.640625 C 19.664062 -8.066406 20.25 -9.90625 20.25 -12.15625 C 20.25 -13.582031 19.984375 -14.851562 19.453125 -15.96875 C 18.929688 -17.082031 18.195312 -17.960938 17.25 -18.609375 C 16.3125 -19.253906 15.203125 -19.578125 13.921875 -19.578125 C 12.691406 -19.578125 11.59375 -19.257812 10.625 -18.625 C 9.65625 -18 8.894531 -17.128906 8.34375 -16.015625 C 7.800781 -14.898438 7.53125 -13.613281 7.53125 -12.15625 C 7.53125 -9.875 8.128906 -8.023438 9.328125 -6.609375 C 10.535156 -5.203125 12.066406 -4.5 13.921875 -4.5 Z M 13.921875 -4.5 "/></g></g></g><g fill="#ff9764" fill-opacity="1"><g transform="translate(301.226181, 42.925341)"><g><path d="M 13.015625 0.46875 C 11.191406 0.46875 9.453125 0.175781 7.796875 -0.40625 C 6.140625 -0.988281 4.742188 -1.914062 3.609375 -3.1875 C 2.484375 -4.457031 1.78125 -6.09375 1.5 -8.09375 L 7.1875 -8.09375 C 7.5625 -6.78125 8.25 -5.78125 9.25 -5.09375 C 10.25 -4.40625 11.492188 -4.0625 12.984375 -4.0625 C 14.203125 -4.0625 15.210938 -4.304688 16.015625 -4.796875 C 16.816406 -5.285156 17.21875 -5.972656 17.21875 -6.859375 C 17.21875 -7.566406 16.953125 -8.128906 16.421875 -8.546875 C 15.890625 -8.960938 15.195312 -9.28125 14.34375 -9.5 C 13.488281 -9.726562 12.546875 -9.945312 11.515625 -10.15625 C 10.492188 -10.351562 9.445312 -10.59375 8.375 -10.875 C 7.300781 -11.164062 6.320312 -11.5625 5.4375 -12.0625 C 4.550781 -12.5625 3.835938 -13.226562 3.296875 -14.0625 C 2.753906 -14.90625 2.484375 -16 2.484375 -17.34375 C 2.484375 -19.03125 2.910156 -20.398438 3.765625 -21.453125 C 4.617188 -22.515625 5.753906 -23.296875 7.171875 -23.796875 C 8.585938 -24.296875 10.125 -24.546875 11.78125 -24.546875 C 14.570312 -24.546875 16.910156 -23.835938 18.796875 -22.421875 C 20.679688 -21.003906 21.835938 -18.984375 22.265625 -16.359375 L 16.828125 -16.359375 C 16.484375 -17.671875 15.835938 -18.601562 14.890625 -19.15625 C 13.953125 -19.71875 12.898438 -20 11.734375 -20 C 10.585938 -20 9.679688 -19.773438 9.015625 -19.328125 C 8.347656 -18.890625 8.015625 -18.300781 8.015625 -17.5625 C 8.015625 -16.90625 8.269531 -16.390625 8.78125 -16.015625 C 9.289062 -15.648438 9.96875 -15.363281 10.8125 -15.15625 C 11.65625 -14.957031 12.5625 -14.757812 13.53125 -14.5625 C 14.59375 -14.363281 15.671875 -14.128906 16.765625 -13.859375 C 17.867188 -13.585938 18.882812 -13.203125 19.8125 -12.703125 C 20.738281 -12.203125 21.484375 -11.515625 22.046875 -10.640625 C 22.617188 -9.773438 22.90625 -8.65625 22.90625 -7.28125 C 22.90625 -4.9375 22.035156 -3.054688 20.296875 -1.640625 C 18.554688 -0.234375 16.128906 0.46875 13.015625 0.46875 Z M 13.015625 0.46875 "/></g></g></g></g></g></svg>